<?xml version="1.0" encoding="UTF-8" standalone="no"?>
<svg width="161px" height="108px" viewBox="0 0 161 108" version="1.1" xmlns="http://www.w3.org/2000/svg" xmlns:xlink="http://www.w3.org/1999/xlink" xmlns:sketch="http://www.bohemiancoding.com/sketch/ns">
    <!-- Generator: Sketch 3.2.2 (9983) - http://www.bohemiancoding.com/sketch -->
    <title>Sun and clouds</title>
    <desc>Created with Sketch.</desc>
    <defs></defs>
    <g id="Icons" stroke="none" stroke-width="1" fill="none" fill-rule="evenodd" sketch:type="MSPage">
        <g id="Sun-and-clouds" sketch:type="MSLayerGroup" transform="translate(4.000000, 2.000000)">
            <ellipse id="Sun" fill="#FDFBD6" sketch:type="MSShapeGroup" cx="108.811435" cy="43.6009058" rx="43.8609112" ry="43.6009058"></ellipse>
            <path d="M28.8168273,99.8931182 C12.8940927,99.750869 0.0304682509,86.8755762 0.0304682509,71.0136331 C0.0304682509,55.0632766 13.0378944,42.1329579 29.0833677,42.1329579 C30.2197829,42.1329579 31.3409588,42.1978181 32.4433536,42.3240176 C36.3543831,25.2222885 51.7428943,12.4574017 70.1305835,12.4574017 C88.8885697,12.4574017 104.525365,25.741592 108.040065,43.3624253 L108.040065,43.3624253 C109.070468,43.2503307 110.117375,43.1927992 111.177799,43.1927992 C126.92886,43.1927992 139.697618,55.8858644 139.697618,71.5435538 C139.697618,87.2012432 126.92886,99.8943084 111.177799,99.8943084 C111.088857,99.8943084 111.000009,99.8939036 110.911259,99.8930959 L28.8168273,99.8943084 Z" id="Cloud" fill="#ECECDF" sketch:type="MSShapeGroup"></path>
        </g>
    </g>
</svg>